<?xml version="1.0" encoding="UTF-8"?>
<svg id="Layer_1" data-name="Layer 1" xmlns="http://www.w3.org/2000/svg" viewBox="0 0 530.65 256">
  <defs>
    <style>
      .cls-1 {
        fill: #fff;
      }

      .cls-2 {
        fill: #1a1a1a;
      }
    </style>
  </defs>
  <circle class="cls-2" cx="405.15" cy="128.03" r="125.5"/>
  <circle class="cls-1" cx="405.15" cy="128.03" r="117.03"/>
  <path class="cls-2" d="M523.65,86.62c-12.57-35.99-41.07-64.49-77.05-77.08-19.27,0-38.55.01-57.82.01-8.37,0-16.75,0-25.12,0-35.93,12.58-64.4,41.05-76.98,76.98,0,27.66,0,55.32,0,82.98,12.59,35.96,41.09,64.44,77.07,77.01h82.81c36-12.58,64.52-41.09,77.1-77.1v-82.81ZM464.16,48.56c5.99-1.12,11.97-2.27,17.96-3.35,3.09-.55,5.57,1.43,5.07,4.35-1.7,9.92-3.6,19.81-5.48,30.02-9.75-9.77-19.17-19.22-28.85-28.92,3.77-.7,7.54-1.4,11.3-2.1ZM475.13,80.67c4.12,4.19,4.01,4.25.87,9.19-5.7,8.98-12.27,17.19-20.69,23.8-.63.49-1.21,1.68-1.08,2.41,1.78,9.73-1.81,17.09-9.75,22.59-3.97,2.75-7.95,5.47-11.95,8.18-2.81,1.9-4.35,1.13-4.55-2.35-.32-5.73-.54-11.47-.78-17.21-.06-1.34-.07-2.48-1.94-2.59-10.08-.59-17.04-6.65-17.77-19.27-6.41-.36-12.85-.67-19.28-1.12-1.16-.08-3.11-.57-3.24-1.19-.26-1.2.21-2.82.92-3.91,2.68-4.12,5.6-8.08,8.38-12.14,4.97-7.27,13.04-10.66,21.63-8.88,1.38.29,2.05.05,2.93-1.06,6.87-8.76,19.17-18.95,28.96-24.03,9.17,9.23,18.31,18.36,27.37,27.58ZM336.03,67.59c30.37-35.61,78.52-39.08,110.16-21.77-6.13,7.8-13.5,11.21-23.37,8.16-3.7-1.14-7.68-1.52-11.57-1.85-20.02-1.68-37.83,3.93-53.37,16.63-13.86,11.33-22.54,25.87-25.99,43.4-2.29,11.6-1.8,23.16,1.69,35.1,1.3-1.27,2.31-2.24,3.31-3.23,7.16-7.15,14.27-14.36,21.49-21.46,6.6-6.48,17.3-6.41,22.88-.09-17.46,17.47-34.91,34.93-52.34,52.38-18.89-26.92-21.97-73.18,7.11-107.28ZM347.08,204.56c-5.94,5.78-14.65,5.39-20.14-.74-4.26-4.75-4.57-12.89-.18-17.56,6.42-6.84,13.14-13.38,19.77-20.02,11.64-11.67,23.3-23.33,34.98-34.96,1.93-1.92,3.83-3.94,6.03-5.51,4.39-3.13,9.19-3.35,13.93-.82,4.81,2.57,7.34,6.65,7.35,13.2.15,3.23-1.76,6.51-4.66,9.4-12.91,12.87-25.8,25.77-38.69,38.66-6.12,6.12-12.18,12.31-18.38,18.36ZM467.5,191.87c-33.04,31.49-80.52,30.92-109.98,11.27,17.33-17.46,34.7-34.96,52.06-52.45,6.35,5.4,6.64,16.37.53,22.57-7.8,7.91-15.7,15.73-23.55,23.59-.31.31-.56.67-1.31,1.58,4.75.74,8.99,1.68,13.27,2.01,22.83,1.73,42.69-5.28,58.93-21.38,14.94-14.81,22.46-33.01,21.89-54.14-.17-6.31-1.35-12.66-2.72-18.86-1.76-8.01,1.28-15.99,8.74-20.95,16.02,28,15.62,74.84-17.87,106.77Z"/>
</svg>