<?xml version="1.0" encoding="UTF-8"?>
<svg id="Layer_1" xmlns="http://www.w3.org/2000/svg" viewBox="0 0 256 256">
  <defs>
    <style>
      .cls-1 {
        fill: #1a1a1a;
      }
    </style>
  </defs>
  <path class="cls-1" d="M256,0v256H0c.01-1.28.03-2.56.03-3.84,0-82.74,0-165.48,0-248.22,0-1.24,0-2.48,0-3.9h3.9c35.46,0,70.92,0,106.38,0,48.56,0,97.12-.02,145.68-.03ZM172.33,39.21c-34.18-18.7-86.19-14.95-118.99,23.51-31.41,36.83-28.09,86.8-7.68,115.88,18.82-18.84,37.67-37.7,56.53-56.57-6.02-6.83-17.58-6.9-24.71.1-7.8,7.67-15.48,15.45-23.22,23.18-1.07,1.07-2.17,2.12-3.57,3.49-3.78-12.9-4.3-25.39-1.83-37.92,3.73-18.93,13.11-34.64,28.08-46.88,16.78-13.72,36.03-19.78,57.65-17.96,4.2.35,8.51.76,12.5,1.99,10.66,3.29,18.62-.4,25.24-8.82ZM174.03,47.05c-10.57,5.49-23.86,16.5-31.28,25.95-.94,1.2-1.68,1.46-3.16,1.15-9.27-1.93-17.99,1.74-23.36,9.59-3,4.39-6.16,8.66-9.05,13.12-.77,1.18-1.27,2.93-.99,4.22.14.66,2.25,1.2,3.5,1.28,6.95.49,13.91.83,20.83,1.21.78,13.64,8.3,20.18,19.19,20.82,2.02.12,2.04,1.35,2.1,2.79.26,6.2.5,12.4.85,18.59.21,3.76,1.88,4.59,4.91,2.54,4.32-2.92,8.62-5.87,12.91-8.83,8.58-5.94,12.46-13.89,10.54-24.4-.14-.79.49-2.07,1.16-2.6,9.1-7.15,16.2-16.01,22.35-25.71,3.39-5.34,3.51-5.4-.94-9.93-9.78-9.96-19.66-19.83-29.56-29.79ZM76.55,209.13c31.82,21.23,83.11,21.85,118.8-12.17,36.17-34.48,36.6-85.08,19.3-115.33-8.06,5.36-11.35,13.98-9.44,22.63,1.47,6.69,2.75,13.55,2.93,20.37.62,22.83-7.51,42.48-23.64,58.48-17.55,17.4-39,24.96-63.66,23.1-4.62-.35-9.2-1.37-14.33-2.17.81-.99,1.08-1.37,1.41-1.7,8.48-8.49,17.01-16.94,25.44-25.48,6.6-6.69,6.28-18.55-.58-24.38-18.75,18.9-37.51,37.79-56.23,56.66ZM131.95,138.93c0-7.07-2.75-11.48-7.94-14.26-5.12-2.74-10.31-2.5-15.05.89-2.38,1.7-4.43,3.87-6.51,5.95-12.61,12.57-25.2,25.16-37.78,37.76-7.16,7.17-14.42,14.24-21.35,21.63-4.74,5.05-4.41,13.83.19,18.97,5.93,6.62,15.35,7.04,21.76.8,6.7-6.52,13.24-13.21,19.86-19.83,13.93-13.92,27.84-27.86,41.79-41.76,3.13-3.12,5.19-6.66,5.03-10.15ZM210.69,75.67c2.03-11.04,4.09-21.71,5.92-32.43.54-3.15-2.14-5.3-5.48-4.7-6.48,1.16-12.94,2.41-19.4,3.62-4.06.76-8.13,1.51-12.2,2.27,10.45,10.48,20.63,20.69,31.16,31.24Z"/>
</svg>